<svg width="429" height="47" viewBox="0 0 429 47" fill="none" xmlns="http://www.w3.org/2000/svg">
<path d="M301.586 0.650391C305.14 0.0190116 309.316 1.36938 311.844 4.70996V8.55859C309.616 6.52328 306.592 5.26434 303.975 5.19629C302.48 5.15744 301.065 5.50666 300.017 6.38477C298.955 7.27395 298.339 8.64629 298.339 10.4971C298.339 11.0737 298.505 11.576 298.818 12.0059C299.126 12.4278 299.559 12.7569 300.061 13.0254C301.052 13.5556 302.424 13.9064 303.957 14.2402C307.07 14.9184 311.005 15.5595 314.674 17.3574C318.811 19.4783 321.866 24.2459 321.64 31.6777C321.302 40.6349 313.59 46.9448 306.525 46.4424H306.517C301.637 46.1862 298.178 44.5542 295.805 42.2285C293.425 39.8969 292.1 36.8298 291.559 33.6484C291.017 30.4656 291.267 27.1923 292.016 24.4854C292.488 22.7781 293.147 21.3355 293.901 20.2822C293.262 21.3436 292.794 22.6143 292.503 23.9854C291.942 26.6241 292.001 29.7208 292.755 32.6387C293.509 35.5562 294.967 38.3303 297.235 40.2861C299.515 42.2516 302.582 43.3625 306.479 42.9902L306.479 42.9893C310.515 42.7134 313.531 40.7189 315.53 38.2334C317.521 35.7577 318.524 32.7705 318.524 30.4531C318.524 26.5444 316.982 24.0875 314.658 22.4082C312.38 20.7619 309.363 19.8741 306.458 19.0137C303.509 18.1402 300.672 17.2945 298.56 15.7676C296.493 14.2735 295.108 12.1162 295.108 8.5332C295.108 6.19165 295.849 4.38746 297.01 3.09082C298.175 1.78952 299.792 0.969167 301.586 0.650391ZM326.389 20.2842C325.75 21.3451 325.284 22.6153 324.992 23.9854C324.431 26.6241 324.49 29.7209 325.244 32.6387C325.998 35.5562 327.456 38.3303 329.725 40.2861C332.005 42.2516 335.071 43.3624 338.969 42.9902L338.968 42.9893C343.005 42.7135 346.021 40.7189 348.02 38.2334C350.01 35.7577 351.014 32.7705 351.014 30.4531C351.014 26.5444 349.471 24.0875 347.147 22.4082C344.87 20.762 341.852 19.8741 338.947 19.0137C335.998 18.1403 333.161 17.2945 331.049 15.7676C328.982 14.2735 327.598 12.1161 327.598 8.5332C327.598 6.19156 328.339 4.38747 329.5 3.09082C330.665 1.78966 332.281 0.969147 334.075 0.650391C337.63 0.0188597 341.806 1.36958 344.334 4.71094V8.55957C342.106 6.52376 339.082 5.26432 336.464 5.19629C334.969 5.15747 333.555 5.50679 332.507 6.38477C331.445 7.27394 330.829 8.64613 330.829 10.4971C330.829 11.0736 330.994 11.5761 331.308 12.0059C331.615 12.4278 332.048 12.7569 332.55 13.0254C333.541 13.5556 334.913 13.9064 336.446 14.2402C339.559 14.9181 343.491 15.5582 347.159 17.3545C351.298 19.4742 354.355 24.2432 354.129 31.6777C353.791 40.6348 346.08 46.9448 339.015 46.4424H339.006C334.126 46.1862 330.667 44.5543 328.294 42.2285C325.915 39.8969 324.589 36.8298 324.048 33.6484C323.507 30.4656 323.756 27.1923 324.505 24.4854C324.977 22.7793 325.635 21.3372 326.389 20.2842Z" fill="#F5C499" stroke="#173631"/>
<mask id="path-2-inside-1_315_14" fill="white">
<path d="M0 0H13.0483C14.5088 0 15.8249 0.283481 16.9965 0.850444C18.1681 1.41741 19.1712 2.19153 20.0058 3.17281C20.8404 4.13229 21.4824 5.25531 21.9318 6.54188C22.3812 7.82845 22.6059 9.20225 22.6059 10.6633C22.6059 12.8439 22.1484 14.8719 21.2336 16.7472C20.3348 18.6226 19.0348 20.1599 17.3336 21.3592C18.6175 21.8608 19.7009 22.5041 20.5836 23.2891C21.4663 24.0741 22.1725 24.9682 22.7022 25.9713C23.2478 26.9744 23.6411 28.0538 23.8818 29.2095C24.1225 30.3652 24.2429 31.5646 24.2429 32.8075C24.2429 34.5738 23.9781 36.2311 23.4485 37.7794C22.9188 39.3276 22.2046 40.6905 21.3058 41.868C20.4231 43.0238 19.3959 43.9396 18.2243 44.6156C17.0687 45.2916 15.857 45.6296 14.5891 45.6296H0V0ZM3.56301 19.2004H12.2057C13.2168 19.2004 14.1397 18.9933 14.9743 18.5789C15.8089 18.1646 16.5231 17.5977 17.1169 16.8781C17.7268 16.1584 18.2002 15.3298 18.5373 14.3921C18.8743 13.4327 19.0428 12.4187 19.0428 11.3502C19.0428 10.3689 18.9225 9.46392 18.6817 8.63528C18.441 7.78484 18.0638 7.05433 17.5502 6.44375C17.0527 5.81137 16.4107 5.32073 15.6243 4.97183C14.8379 4.60112 13.907 4.41577 12.8317 4.41577H3.56301V19.2004ZM3.56301 41.2138H13.0724C13.9712 41.2138 14.87 41.0394 15.7687 40.6905C16.6836 40.3416 17.5021 39.8182 18.2243 39.1204C18.9466 38.4008 19.5324 37.4959 19.9818 36.4056C20.4472 35.3153 20.6799 34.0287 20.6799 32.5459C20.6799 31.3247 20.4713 30.169 20.054 29.0787C19.6527 27.9665 19.0669 27.0071 18.2965 26.2002C17.5422 25.3716 16.6113 24.7174 15.5039 24.2377C14.4125 23.7579 13.1687 23.5181 11.7724 23.5181H3.56301V41.2138Z"/>
<path d="M54.36 0V4.41577H35.5338V19.8546H53.2526V24.2704H35.5338V41.2138H55.2026V45.6296H31.9708V0H54.36Z"/>
<path d="M67.1676 0V41.2138H84.0437V45.6296H63.6046V0H67.1676Z"/>
<path d="M113.92 0V4.41577H95.0939V19.8546H112.813V24.2704H95.0939V41.2138H114.763V45.6296H91.5309V0H113.92Z"/>
<path d="M120.95 40.7886L142.328 4.41577H120.95V0H146.228V5.69144L125.139 41.2138H146.228V45.6296H120.95V40.7886Z"/>
<path d="M151.428 40.7886L172.806 4.41577H151.428V0H176.706V5.69144L155.617 41.2138H176.706V45.6296H151.428V40.7886Z"/>
<path d="M199.553 0L211.758 45.6296H208.051L204.175 31.1066H189.899L186.023 45.6296H182.339L194.642 0H199.553ZM197.049 4.5139L190.886 27.4432H203.188L197.049 4.5139Z"/>
<path d="M254.346 0V4.41577H243.224V45.6296H239.661V4.41577H228.562V0H254.346Z"/>
<path d="M284.126 0V4.41577H265.3V19.8546H283.019V24.2704H265.3V41.2138H284.969V45.6296H261.737V0H284.126Z"/>
<path d="M363.036 0V30.7468C363.036 32.6004 363.285 34.2686 363.782 35.7514C364.296 37.2124 364.954 38.4554 365.757 39.4802C366.575 40.5051 367.49 41.2902 368.501 41.8353C369.528 42.3805 370.563 42.6531 371.607 42.6531C372.698 42.6531 373.789 42.4023 374.881 41.9007C375.988 41.3992 376.975 40.6578 377.842 39.6765C378.725 38.6952 379.439 37.4741 379.985 36.0131C380.546 34.5302 380.827 32.8184 380.827 30.8777V0H384.39V30.5506C384.39 32.3169 384.214 33.9524 383.861 35.457C383.523 36.9398 383.05 38.2918 382.44 39.513C381.83 40.7341 381.116 41.8135 380.298 42.7512C379.479 43.6671 378.596 44.4412 377.649 45.0736C376.702 45.7059 375.715 46.1748 374.688 46.4801C373.677 46.8072 372.666 46.9707 371.655 46.9707C370.692 46.9707 369.721 46.8072 368.742 46.4801C367.763 46.1748 366.824 45.7168 365.925 45.1063C365.026 44.4739 364.184 43.6998 363.397 42.7839C362.611 41.8462 361.929 40.7668 361.351 39.5457C360.773 38.3245 360.316 36.9507 359.979 35.4243C359.642 33.8978 359.473 32.2297 359.473 30.4197V0H363.036Z"/>
<path d="M417.613 0V4.41577H406.49V45.6296H402.927V4.41577H391.829V0H417.613Z"/>
<path d="M429 0V45.6296H425.437V0H429Z"/>
</mask>
<path d="M0 0H13.0483C14.5088 0 15.8249 0.283481 16.9965 0.850444C18.1681 1.41741 19.1712 2.19153 20.0058 3.17281C20.8404 4.13229 21.4824 5.25531 21.9318 6.54188C22.3812 7.82845 22.6059 9.20225 22.6059 10.6633C22.6059 12.8439 22.1484 14.8719 21.2336 16.7472C20.3348 18.6226 19.0348 20.1599 17.3336 21.3592C18.6175 21.8608 19.7009 22.5041 20.5836 23.2891C21.4663 24.0741 22.1725 24.9682 22.7022 25.9713C23.2478 26.9744 23.6411 28.0538 23.8818 29.2095C24.1225 30.3652 24.2429 31.5646 24.2429 32.8075C24.2429 34.5738 23.9781 36.2311 23.4485 37.7794C22.9188 39.3276 22.2046 40.6905 21.3058 41.868C20.4231 43.0238 19.3959 43.9396 18.2243 44.6156C17.0687 45.2916 15.857 45.6296 14.5891 45.6296H0V0ZM3.56301 19.2004H12.2057C13.2168 19.2004 14.1397 18.9933 14.9743 18.5789C15.8089 18.1646 16.5231 17.5977 17.1169 16.8781C17.7268 16.1584 18.2002 15.3298 18.5373 14.3921C18.8743 13.4327 19.0428 12.4187 19.0428 11.3502C19.0428 10.3689 18.9225 9.46392 18.6817 8.63528C18.441 7.78484 18.0638 7.05433 17.5502 6.44375C17.0527 5.81137 16.4107 5.32073 15.6243 4.97183C14.8379 4.60112 13.907 4.41577 12.8317 4.41577H3.56301V19.2004ZM3.56301 41.2138H13.0724C13.9712 41.2138 14.87 41.0394 15.7687 40.6905C16.6836 40.3416 17.5021 39.8182 18.2243 39.1204C18.9466 38.4008 19.5324 37.4959 19.9818 36.4056C20.4472 35.3153 20.6799 34.0287 20.6799 32.5459C20.6799 31.3247 20.4713 30.169 20.054 29.0787C19.6527 27.9665 19.0669 27.0071 18.2965 26.2002C17.5422 25.3716 16.6113 24.7174 15.5039 24.2377C14.4125 23.7579 13.1687 23.5181 11.7724 23.5181H3.56301V41.2138Z" fill="#F5C499"/>
<path d="M54.36 0V4.41577H35.5338V19.8546H53.2526V24.2704H35.5338V41.2138H55.2026V45.6296H31.9708V0H54.36Z" fill="#F5C499"/>
<path d="M67.1676 0V41.2138H84.0437V45.6296H63.6046V0H67.1676Z" fill="#F5C499"/>
<path d="M113.92 0V4.41577H95.0939V19.8546H112.813V24.2704H95.0939V41.2138H114.763V45.6296H91.5309V0H113.92Z" fill="#F5C499"/>
<path d="M120.95 40.7886L142.328 4.41577H120.95V0H146.228V5.69144L125.139 41.2138H146.228V45.6296H120.95V40.7886Z" fill="#F5C499"/>
<path d="M151.428 40.7886L172.806 4.41577H151.428V0H176.706V5.69144L155.617 41.2138H176.706V45.6296H151.428V40.7886Z" fill="#F5C499"/>
<path d="M199.553 0L211.758 45.6296H208.051L204.175 31.1066H189.899L186.023 45.6296H182.339L194.642 0H199.553ZM197.049 4.5139L190.886 27.4432H203.188L197.049 4.5139Z" fill="#F5C499"/>
<path d="M254.346 0V4.41577H243.224V45.6296H239.661V4.41577H228.562V0H254.346Z" fill="#F5C499"/>
<path d="M284.126 0V4.41577H265.3V19.8546H283.019V24.2704H265.3V41.2138H284.969V45.6296H261.737V0H284.126Z" fill="#F5C499"/>
<path d="M363.036 0V30.7468C363.036 32.6004 363.285 34.2686 363.782 35.7514C364.296 37.2124 364.954 38.4554 365.757 39.4802C366.575 40.5051 367.49 41.2902 368.501 41.8353C369.528 42.3805 370.563 42.6531 371.607 42.6531C372.698 42.6531 373.789 42.4023 374.881 41.9007C375.988 41.3992 376.975 40.6578 377.842 39.6765C378.725 38.6952 379.439 37.4741 379.985 36.0131C380.546 34.5302 380.827 32.8184 380.827 30.8777V0H384.39V30.5506C384.39 32.3169 384.214 33.9524 383.861 35.457C383.523 36.9398 383.05 38.2918 382.44 39.513C381.83 40.7341 381.116 41.8135 380.298 42.7512C379.479 43.6671 378.596 44.4412 377.649 45.0736C376.702 45.7059 375.715 46.1748 374.688 46.4801C373.677 46.8072 372.666 46.9707 371.655 46.9707C370.692 46.9707 369.721 46.8072 368.742 46.4801C367.763 46.1748 366.824 45.7168 365.925 45.1063C365.026 44.4739 364.184 43.6998 363.397 42.7839C362.611 41.8462 361.929 40.7668 361.351 39.5457C360.773 38.3245 360.316 36.9507 359.979 35.4243C359.642 33.8978 359.473 32.2297 359.473 30.4197V0H363.036Z" fill="#F5C499"/>
<path d="M417.613 0V4.41577H406.49V45.6296H402.927V4.41577H391.829V0H417.613Z" fill="#F5C499"/>
<path d="M429 0V45.6296H425.437V0H429Z" fill="#F5C499"/>
<path d="M0 0H13.0483C14.5088 0 15.8249 0.283481 16.9965 0.850444C18.1681 1.41741 19.1712 2.19153 20.0058 3.17281C20.8404 4.13229 21.4824 5.25531 21.9318 6.54188C22.3812 7.82845 22.6059 9.20225 22.6059 10.6633C22.6059 12.8439 22.1484 14.8719 21.2336 16.7472C20.3348 18.6226 19.0348 20.1599 17.3336 21.3592C18.6175 21.8608 19.7009 22.5041 20.5836 23.2891C21.4663 24.0741 22.1725 24.9682 22.7022 25.9713C23.2478 26.9744 23.6411 28.0538 23.8818 29.2095C24.1225 30.3652 24.2429 31.5646 24.2429 32.8075C24.2429 34.5738 23.9781 36.2311 23.4485 37.7794C22.9188 39.3276 22.2046 40.6905 21.3058 41.868C20.4231 43.0238 19.3959 43.9396 18.2243 44.6156C17.0687 45.2916 15.857 45.6296 14.5891 45.6296H0V0ZM3.56301 19.2004H12.2057C13.2168 19.2004 14.1397 18.9933 14.9743 18.5789C15.8089 18.1646 16.5231 17.5977 17.1169 16.8781C17.7268 16.1584 18.2002 15.3298 18.5373 14.3921C18.8743 13.4327 19.0428 12.4187 19.0428 11.3502C19.0428 10.3689 18.9225 9.46392 18.6817 8.63528C18.441 7.78484 18.0638 7.05433 17.5502 6.44375C17.0527 5.81137 16.4107 5.32073 15.6243 4.97183C14.8379 4.60112 13.907 4.41577 12.8317 4.41577H3.56301V19.2004ZM3.56301 41.2138H13.0724C13.9712 41.2138 14.87 41.0394 15.7687 40.6905C16.6836 40.3416 17.5021 39.8182 18.2243 39.1204C18.9466 38.4008 19.5324 37.4959 19.9818 36.4056C20.4472 35.3153 20.6799 34.0287 20.6799 32.5459C20.6799 31.3247 20.4713 30.169 20.054 29.0787C19.6527 27.9665 19.0669 27.0071 18.2965 26.2002C17.5422 25.3716 16.6113 24.7174 15.5039 24.2377C14.4125 23.7579 13.1687 23.5181 11.7724 23.5181H3.56301V41.2138Z" stroke="#173631" stroke-width="2" mask="url(#path-2-inside-1_315_14)"/>
<path d="M0 0H13.0483C14.5088 0 15.8249 0.283481 16.9965 0.850444C18.1681 1.41741 19.1712 2.19153 20.0058 3.17281C20.8404 4.13229 21.4824 5.25531 21.9318 6.54188C22.3812 7.82845 22.6059 9.20225 22.6059 10.6633C22.6059 12.8439 22.1484 14.8719 21.2336 16.7472C20.3348 18.6226 19.0348 20.1599 17.3336 21.3592C18.6175 21.8608 19.7009 22.5041 20.5836 23.2891C21.4663 24.0741 22.1725 24.9682 22.7022 25.9713C23.2478 26.9744 23.6411 28.0538 23.8818 29.2095C24.1225 30.3652 24.2429 31.5646 24.2429 32.8075C24.2429 34.5738 23.9781 36.2311 23.4485 37.7794C22.9188 39.3276 22.2046 40.6905 21.3058 41.868C20.4231 43.0238 19.3959 43.9396 18.2243 44.6156C17.0687 45.2916 15.857 45.6296 14.5891 45.6296H0V0ZM3.56301 19.2004H12.2057C13.2168 19.2004 14.1397 18.9933 14.9743 18.5789C15.8089 18.1646 16.5231 17.5977 17.1169 16.8781C17.7268 16.1584 18.2002 15.3298 18.5373 14.3921C18.8743 13.4327 19.0428 12.4187 19.0428 11.3502C19.0428 10.3689 18.9225 9.46392 18.6817 8.63528C18.441 7.78484 18.0638 7.05433 17.5502 6.44375C17.0527 5.81137 16.4107 5.32073 15.6243 4.97183C14.8379 4.60112 13.907 4.41577 12.8317 4.41577H3.56301V19.2004ZM3.56301 41.2138H13.0724C13.9712 41.2138 14.87 41.0394 15.7687 40.6905C16.6836 40.3416 17.5021 39.8182 18.2243 39.1204C18.9466 38.4008 19.5324 37.4959 19.9818 36.4056C20.4472 35.3153 20.6799 34.0287 20.6799 32.5459C20.6799 31.3247 20.4713 30.169 20.054 29.0787C19.6527 27.9665 19.0669 27.0071 18.2965 26.2002C17.5422 25.3716 16.6113 24.7174 15.5039 24.2377C14.4125 23.7579 13.1687 23.5181 11.7724 23.5181H3.56301V41.2138Z" stroke="#173631" stroke-width="2" mask="url(#path-2-inside-1_315_14)"/>
<path d="M54.36 0V4.41577H35.5338V19.8546H53.2526V24.2704H35.5338V41.2138H55.2026V45.6296H31.9708V0H54.36Z" stroke="#173631" stroke-width="2" mask="url(#path-2-inside-1_315_14)"/>
<path d="M54.36 0V4.41577H35.5338V19.8546H53.2526V24.2704H35.5338V41.2138H55.2026V45.6296H31.9708V0H54.36Z" stroke="#173631" stroke-width="2" mask="url(#path-2-inside-1_315_14)"/>
<path d="M67.1676 0V41.2138H84.0437V45.6296H63.6046V0H67.1676Z" stroke="#173631" stroke-width="2" mask="url(#path-2-inside-1_315_14)"/>
<path d="M67.1676 0V41.2138H84.0437V45.6296H63.6046V0H67.1676Z" stroke="#173631" stroke-width="2" mask="url(#path-2-inside-1_315_14)"/>
<path d="M113.92 0V4.41577H95.0939V19.8546H112.813V24.2704H95.0939V41.2138H114.763V45.6296H91.5309V0H113.92Z" stroke="#173631" stroke-width="2" mask="url(#path-2-inside-1_315_14)"/>
<path d="M113.92 0V4.41577H95.0939V19.8546H112.813V24.2704H95.0939V41.2138H114.763V45.6296H91.5309V0H113.92Z" stroke="#173631" stroke-width="2" mask="url(#path-2-inside-1_315_14)"/>
<path d="M120.95 40.7886L142.328 4.41577H120.95V0H146.228V5.69144L125.139 41.2138H146.228V45.6296H120.95V40.7886Z" stroke="#173631" stroke-width="2" mask="url(#path-2-inside-1_315_14)"/>
<path d="M120.95 40.7886L142.328 4.41577H120.95V0H146.228V5.69144L125.139 41.2138H146.228V45.6296H120.95V40.7886Z" stroke="#173631" stroke-width="2" mask="url(#path-2-inside-1_315_14)"/>
<path d="M151.428 40.7886L172.806 4.41577H151.428V0H176.706V5.69144L155.617 41.2138H176.706V45.6296H151.428V40.7886Z" stroke="#173631" stroke-width="2" mask="url(#path-2-inside-1_315_14)"/>
<path d="M151.428 40.7886L172.806 4.41577H151.428V0H176.706V5.69144L155.617 41.2138H176.706V45.6296H151.428V40.7886Z" stroke="#173631" stroke-width="2" mask="url(#path-2-inside-1_315_14)"/>
<path d="M199.553 0L211.758 45.6296H208.051L204.175 31.1066H189.899L186.023 45.6296H182.339L194.642 0H199.553ZM197.049 4.5139L190.886 27.4432H203.188L197.049 4.5139Z" stroke="#173631" stroke-width="2" mask="url(#path-2-inside-1_315_14)"/>
<path d="M199.553 0L211.758 45.6296H208.051L204.175 31.1066H189.899L186.023 45.6296H182.339L194.642 0H199.553ZM197.049 4.5139L190.886 27.4432H203.188L197.049 4.5139Z" stroke="#173631" stroke-width="2" mask="url(#path-2-inside-1_315_14)"/>
<path d="M254.346 0V4.41577H243.224V45.6296H239.661V4.41577H228.562V0H254.346Z" stroke="#173631" stroke-width="2" mask="url(#path-2-inside-1_315_14)"/>
<path d="M254.346 0V4.41577H243.224V45.6296H239.661V4.41577H228.562V0H254.346Z" stroke="#173631" stroke-width="2" mask="url(#path-2-inside-1_315_14)"/>
<path d="M284.126 0V4.41577H265.3V19.8546H283.019V24.2704H265.3V41.2138H284.969V45.6296H261.737V0H284.126Z" stroke="#173631" stroke-width="2" mask="url(#path-2-inside-1_315_14)"/>
<path d="M284.126 0V4.41577H265.3V19.8546H283.019V24.2704H265.3V41.2138H284.969V45.6296H261.737V0H284.126Z" stroke="#173631" stroke-width="2" mask="url(#path-2-inside-1_315_14)"/>
<path d="M363.036 0V30.7468C363.036 32.6004 363.285 34.2686 363.782 35.7514C364.296 37.2124 364.954 38.4554 365.757 39.4802C366.575 40.5051 367.49 41.2902 368.501 41.8353C369.528 42.3805 370.563 42.6531 371.607 42.6531C372.698 42.6531 373.789 42.4023 374.881 41.9007C375.988 41.3992 376.975 40.6578 377.842 39.6765C378.725 38.6952 379.439 37.4741 379.985 36.0131C380.546 34.5302 380.827 32.8184 380.827 30.8777V0H384.39V30.5506C384.39 32.3169 384.214 33.9524 383.861 35.457C383.523 36.9398 383.05 38.2918 382.44 39.513C381.83 40.7341 381.116 41.8135 380.298 42.7512C379.479 43.6671 378.596 44.4412 377.649 45.0736C376.702 45.7059 375.715 46.1748 374.688 46.4801C373.677 46.8072 372.666 46.9707 371.655 46.9707C370.692 46.9707 369.721 46.8072 368.742 46.4801C367.763 46.1748 366.824 45.7168 365.925 45.1063C365.026 44.4739 364.184 43.6998 363.397 42.7839C362.611 41.8462 361.929 40.7668 361.351 39.5457C360.773 38.3245 360.316 36.9507 359.979 35.4243C359.642 33.8978 359.473 32.2297 359.473 30.4197V0H363.036Z" stroke="#173631" stroke-width="2" mask="url(#path-2-inside-1_315_14)"/>
<path d="M363.036 0V30.7468C363.036 32.6004 363.285 34.2686 363.782 35.7514C364.296 37.2124 364.954 38.4554 365.757 39.4802C366.575 40.5051 367.49 41.2902 368.501 41.8353C369.528 42.3805 370.563 42.6531 371.607 42.6531C372.698 42.6531 373.789 42.4023 374.881 41.9007C375.988 41.3992 376.975 40.6578 377.842 39.6765C378.725 38.6952 379.439 37.4741 379.985 36.0131C380.546 34.5302 380.827 32.8184 380.827 30.8777V0H384.39V30.5506C384.39 32.3169 384.214 33.9524 383.861 35.457C383.523 36.9398 383.05 38.2918 382.44 39.513C381.83 40.7341 381.116 41.8135 380.298 42.7512C379.479 43.6671 378.596 44.4412 377.649 45.0736C376.702 45.7059 375.715 46.1748 374.688 46.4801C373.677 46.8072 372.666 46.9707 371.655 46.9707C370.692 46.9707 369.721 46.8072 368.742 46.4801C367.763 46.1748 366.824 45.7168 365.925 45.1063C365.026 44.4739 364.184 43.6998 363.397 42.7839C362.611 41.8462 361.929 40.7668 361.351 39.5457C360.773 38.3245 360.316 36.9507 359.979 35.4243C359.642 33.8978 359.473 32.2297 359.473 30.4197V0H363.036Z" stroke="#173631" stroke-width="2" mask="url(#path-2-inside-1_315_14)"/>
<path d="M417.613 0V4.41577H406.49V45.6296H402.927V4.41577H391.829V0H417.613Z" stroke="#173631" stroke-width="2" mask="url(#path-2-inside-1_315_14)"/>
<path d="M417.613 0V4.41577H406.49V45.6296H402.927V4.41577H391.829V0H417.613Z" stroke="#173631" stroke-width="2" mask="url(#path-2-inside-1_315_14)"/>
<path d="M429 0V45.6296H425.437V0H429Z" stroke="#173631" stroke-width="2" mask="url(#path-2-inside-1_315_14)"/>
<path d="M429 0V45.6296H425.437V0H429Z" stroke="#173631" stroke-width="2" mask="url(#path-2-inside-1_315_14)"/>
</svg>
