<svg width="64" height="82" viewBox="0 0 64 82" fill="none" xmlns="http://www.w3.org/2000/svg">
<path d="M0.585251 1.11534C2.54526 -2.60359 16.8139 3.86321 23.7033 7.56149C28.1636 3.22263 33.1065 1.36361 43.2207 4.77263C53.3348 8.18165 54.1086 14.2557 54.34 16.1774C54.5708 18.0941 53.1526 24.2238 51.857 27.2485C52.0761 27.4494 52.6675 28.0195 53.9829 29.3173C56.8727 32.1685 60.956 37.561 62.715 41.1559C64.474 44.7509 63.9714 47.5401 62.715 49.4615C61.4586 51.383 58.506 51.321 55.3021 51.321C52.7391 51.321 47.5752 49.5029 45.3136 48.5938C45.766 50.0814 50.1927 54.6267 52.3496 56.7135C49.2085 57.5192 45.6906 59.6886 43.1777 61.6101C40.6649 63.5315 36.4559 72.0231 32.6867 76.6097C29.6713 80.2791 25.6089 82.0642 23.9546 82.498C25.546 78.8204 28.9049 70.8082 29.6085 68.1802C30.4879 64.8951 32.561 63.6555 33.0636 60.8663C33.5662 58.0771 32.3097 56.3416 30.802 53.4284C29.2944 50.5152 25.3366 46.7963 23.6405 46.0525C21.9443 45.3087 18.7405 46.0525 15.8507 46.0525C12.961 46.0525 12.0186 44.8749 11.5789 44.317C11.1392 43.7592 11.3276 42.7055 11.8302 41.7138C12.3327 40.7221 12.1443 39.7923 12.0186 39.3584C11.9181 39.0113 11.0554 38.3461 10.6366 38.0568C10.6366 37.8089 10.6868 37.2015 10.8879 36.7552C11.0889 36.3089 11.8731 35.8464 12.25 35.7017C12.1872 35.6811 11.8804 35.5403 11.0763 34.8957C10.0712 34.09 10.2597 33.2222 10.3225 33.0363C10.3853 32.8503 11.4533 32.3545 11.9558 31.6107C12.4584 30.8669 11.9558 30.495 11.7045 30.1851C11.4533 29.8752 10.5109 29.5653 9.81992 28.6355C9.12889 27.7058 9.7571 27.148 10.0712 26.9C10.3225 26.7017 13.0238 24.834 14.343 23.9249C14.2383 23.9249 13.0112 22.9208 8.94041 18.9043C3.85193 13.8838 -1.86476 5.764 0.585251 1.11534Z" fill="#5A1112"/>
<path d="M19.7461 11.5899L23.7038 7.62305C30.2874 19.5236 45.1676 25.6805 51.7847 27.2714L49.6488 32.6638C47.7013 32.6845 41.57 31.3746 32.6243 25.9698C23.6787 20.5649 20.3115 14.1312 19.7461 11.5899Z" fill="#C6B47C"/>
</svg>
